<svg viewBox="0 0 200 150" xmlns="http://www.w3.org/2000/svg">
  <rect x="20" y="40" width="160" height="80" rx="8" fill="none" stroke="#0a2a5e" stroke-width="3"/>
  <g fill="#0b63d6">
    <rect x="34" y="54" width="14" height="10" rx="2"/>
    <rect x="54" y="54" width="14" height="10" rx="2"/>
    <rect x="74" y="54" width="14" height="10" rx="2"/>
    <rect x="94" y="54" width="14" height="10" rx="2"/>
    <rect x="114" y="54" width="14" height="10" rx="2"/>
    <rect x="134" y="54" width="14" height="10" rx="2"/>
    <rect x="154" y="54" width="12" height="10" rx="2"/>
    <rect x="34" y="70" width="14" height="10" rx="2" opacity=".7"/>
    <rect x="54" y="70" width="14" height="10" rx="2" opacity=".7"/>
    <rect x="74" y="70" width="14" height="10" rx="2" opacity=".7"/>
    <rect x="94" y="70" width="14" height="10" rx="2" opacity=".7"/>
    <rect x="114" y="70" width="14" height="10" rx="2" opacity=".7"/>
    <rect x="134" y="70" width="14" height="10" rx="2" opacity=".7"/>
    <rect x="154" y="70" width="12" height="10" rx="2" opacity=".7"/>
  </g>
  <rect x="34" y="86" width="70" height="10" rx="2" fill="#3da7da"/>
  <rect x="114" y="86" width="52" height="10" rx="2" fill="#0b63d6" opacity=".7"/>
  <rect x="34" y="102" width="132" height="8" rx="2" fill="#0a2a5e" opacity=".25"/>
</svg>
